<svg width="20" height="18" viewBox="0 0 20 18" fill="none" xmlns="http://www.w3.org/2000/svg">
<path d="M9.99933 17.8235C9.62912 17.8235 9.27573 17.7078 8.97704 17.4888C6.94928 16.0055 2.10287 12.3156 0.887058 10.0802C-0.703173 7.15885 0.251807 3.407 3.01157 1.71702C3.90345 1.17159 4.91312 0.882355 5.93961 0.882355C7.47515 0.882355 8.91814 1.50215 9.99933 2.6054C11.0805 1.50215 12.5235 0.882355 14.059 0.882355C15.0855 0.882355 16.0952 1.17159 16.9871 1.71702C19.7469 3.407 20.7018 7.15885 19.1158 10.0802C17.9 12.3156 13.0536 16.0055 11.0258 17.4888C10.7229 17.7078 10.3695 17.8235 9.99933 17.8235ZM5.93961 2.12195C5.14871 2.12195 4.37042 2.34508 3.68048 2.76654C1.47182 4.12184 0.714572 7.13819 1.99769 9.49343C3.12516 11.5677 8.19875 15.3774 9.72588 16.493C9.88574 16.6087 10.1087 16.6087 10.2686 16.493C11.7957 15.3733 16.8693 11.5636 17.9968 9.49343C19.2799 7.13819 18.5226 4.11771 16.314 2.76654C15.6282 2.34508 14.85 2.12195 14.059 2.12195C12.675 2.12195 11.3792 2.78307 10.5042 3.93177L9.99933 4.60115L9.49449 3.93177C8.61945 2.78307 7.32791 2.12195 5.93961 2.12195Z" fill="#F44336"/>
</svg>
