<svg width="96" height="25" viewBox="0 0 96 25" fill="none" xmlns="http://www.w3.org/2000/svg">
<path fill-rule="evenodd" clip-rule="evenodd" d="M7.93016 5.08094C6.96468 5.08094 6.01268 5.35315 5.16934 5.86934C2.55924 7.4692 1.64069 11.041 3.15674 13.8285C3.44041 14.3505 3.94845 14.9774 4.60078 15.6566C5.24948 16.332 6.02596 17.044 6.83181 17.736C8.44336 19.1198 10.1582 20.4115 11.1714 21.1534L11.1717 21.1536C11.4145 21.3318 11.6997 21.425 11.9993 21.425C12.2984 21.425 12.5842 21.3321 12.8323 21.1528C13.8456 20.4109 15.56 19.1194 17.1711 17.736C17.977 17.044 18.7534 16.332 19.4021 15.6566C20.0545 14.9774 20.5624 14.3506 20.8461 13.8286C22.3581 11.041 21.4394 7.46901 18.8292 5.86924C17.9859 5.35311 17.034 5.08094 16.0685 5.08094C14.622 5.08094 13.2604 5.66466 12.2368 6.71009L11.9993 6.95261L11.7619 6.71009C10.7382 5.66466 9.3767 5.08094 7.93016 5.08094ZM4.82121 5.31573C5.76579 4.73757 6.83784 4.42944 7.93016 4.42944C9.45142 4.42944 10.8853 5.003 11.9993 6.02729C13.1134 5.003 14.5473 4.42944 16.0685 4.42944C17.1609 4.42944 18.2329 4.73757 19.1775 5.31573C22.0997 7.10674 23.0955 11.0625 21.4282 14.1362C21.1026 14.7355 20.5462 15.4126 19.8815 16.1047C19.2131 16.8006 18.4196 17.5276 17.6046 18.2274C15.9745 19.6271 14.2443 20.9303 13.225 21.6766L13.2235 21.6777C12.8645 21.9374 12.4422 22.0765 11.9993 22.0765C11.5569 22.0765 11.1336 21.9376 10.7776 21.6764C9.75833 20.9301 8.02823 19.627 6.39828 18.2274C5.58331 17.5276 4.78983 16.8006 4.12145 16.1047C3.45673 15.4127 2.90053 14.7358 2.57487 14.1366M4.82121 5.31573C1.89905 7.10672 0.903135 11.0627 2.57487 14.1366L4.82121 5.31573ZM5.49182 6.36854C6.23377 5.91491 7.07382 5.67302 7.93016 5.67302C9.43233 5.67302 10.8221 6.38998 11.7574 7.61879L11.7583 7.62004L11.9993 7.93993L12.2404 7.62005L12.2413 7.61879C13.1767 6.38984 14.5708 5.67302 16.0685 5.67302C16.9246 5.67302 17.7649 5.91478 18.5031 6.36883C20.8746 7.82111 21.6693 11.044 20.3063 13.548C20.001 14.1091 19.4441 14.7642 18.7801 15.4366C18.111 16.1141 17.3134 16.8287 16.5073 17.5099C14.895 18.8725 13.234 20.1139 12.4663 20.6773L12.4646 20.6786C12.1881 20.8789 11.8064 20.8789 11.5299 20.6786L11.5287 20.6777C10.7606 20.1161 9.09955 18.8756 7.48713 17.513C6.68107 16.8318 5.88345 16.1169 5.21431 15.4388C4.55033 14.766 3.99353 14.1102 3.68815 13.548M5.83998 6.92213C3.78363 8.18526 3.06089 11.0186 4.26992 13.2398C4.52962 13.718 5.03236 14.3205 5.68746 14.9844C6.33751 15.6431 7.11882 16.3439 7.91671 17.0182C9.51162 18.366 11.158 19.5958 11.921 20.1537C11.9647 20.1851 12.0292 20.1852 12.073 20.154C12.8364 19.5937 14.4828 18.363 16.0778 17.0151C16.8757 16.3408 17.657 15.6402 18.3071 14.982C18.9622 14.3186 19.4649 13.7171 19.7245 13.2398C20.9338 11.0183 20.2105 8.181 18.1546 6.92221L18.154 6.92185C17.5177 6.53038 16.7979 6.32452 16.0685 6.32452C14.7919 6.32452 13.5887 6.93395 12.7699 8.00936C12.7697 8.00957 12.7695 8.00978 12.7694 8.00999L11.9993 9.03192L11.2293 8.00999C11.2291 8.00976 11.229 8.00954 11.2288 8.00931C10.4099 6.93379 9.21078 6.32452 7.93016 6.32452C7.2011 6.32452 6.48106 6.53025 5.83998 6.92213ZM5.49182 6.36854L5.49126 6.36889L5.49182 6.36854ZM5.49126 6.36889C3.12023 7.82509 2.32509 11.0437 3.68815 13.548L5.49126 6.36889Z" fill="#333333"/>
<path d="M11.9993 21.7236C11.6291 21.7236 11.2757 21.6079 10.977 21.3889C8.94928 19.9055 4.10287 16.2156 2.88706 13.9802C1.29683 11.0589 2.25181 7.30703 5.01157 5.61704C5.90345 5.07162 6.91312 4.78238 7.93961 4.78238C9.47515 4.78238 10.9181 5.40218 11.9993 6.50542C13.0805 5.40218 14.5235 4.78238 16.059 4.78238C17.0855 4.78238 18.0952 5.07162 18.9871 5.61704C21.7469 7.30703 22.7018 11.0589 21.1158 13.9802C19.9 16.2156 15.0536 19.9055 13.0258 21.3889C12.7229 21.6079 12.3695 21.7236 11.9993 21.7236ZM7.93961 6.02198C7.14871 6.02198 6.37042 6.2451 5.68048 6.66657C3.47182 8.02186 2.71457 11.0382 3.99769 13.3935C5.12516 15.4677 10.1988 19.2774 11.7259 20.3931C11.8857 20.5087 12.1087 20.5087 12.2686 20.3931C13.7957 19.2733 18.8693 15.4636 19.9968 13.3935C21.2799 11.0382 20.5226 8.01773 18.314 6.66657C17.6282 6.2451 16.85 6.02198 16.059 6.02198C14.675 6.02198 13.3792 6.6831 12.5042 7.83179L11.9993 8.50117L11.4945 7.83179C10.6194 6.6831 9.32791 6.02198 7.93961 6.02198Z" fill="#333333"/>
<path fill-rule="evenodd" clip-rule="evenodd" d="M57.2947 22.0594L56.2164 18.0379C56.1546 17.8125 56.1855 17.5695 56.2916 17.3573C57.2329 15.4703 57.5466 13.2165 56.9677 10.8655C56.1811 7.68365 53.6975 5.12934 50.5245 4.28526C49.6583 4.05988 48.8054 3.9494 47.979 3.9494C42.0484 3.9494 37.417 9.51321 39.0168 15.7045C39.7592 18.5682 42.8173 21.5335 45.6943 22.2317C46.472 22.4218 47.2366 22.5102 47.979 22.5102C49.5743 22.5102 51.068 22.0992 52.3805 21.3921C52.5264 21.3125 52.6899 21.2684 52.849 21.2684C52.9285 21.2684 53.0081 21.2772 53.0876 21.2993L57.0031 22.3466C57.0252 22.3511 57.0473 22.3555 57.0649 22.3555C57.2152 22.3555 57.3345 22.2141 57.2947 22.0594ZM54.9791 18.3693L55.5889 20.6452L53.4191 20.0663C53.2335 20.0177 53.0434 19.9912 52.849 19.9912C52.4778 19.9912 52.1021 20.0884 51.7663 20.2696C50.5863 20.906 49.3136 21.2286 47.979 21.2286C47.3205 21.2286 46.6532 21.1446 45.9948 20.9855C43.5598 20.3933 40.8773 17.7772 40.2586 15.3819C39.6134 12.8807 40.1216 10.3131 41.6507 8.33769C43.1797 6.3623 45.4866 5.23098 47.979 5.23098C48.7126 5.23098 49.4594 5.3282 50.1975 5.52707C52.9241 6.25182 55.0409 8.41724 55.7259 11.1748C56.2076 13.1193 56.0087 15.0593 55.147 16.7873C54.8995 17.2822 54.8376 17.8435 54.9791 18.3693Z" fill="#333333"/>
<path fill-rule="evenodd" clip-rule="evenodd" d="M39.3612 15.6154C37.821 9.65421 42.276 4.30516 47.979 4.30516C48.7733 4.30516 49.5958 4.4113 50.4339 4.6293C53.4796 5.43986 55.8666 7.89389 56.6224 10.9509C57.1807 13.2187 56.8773 15.3859 55.9734 17.1982C55.8321 17.4809 55.7862 17.8134 55.8731 18.131C55.8732 18.1313 55.8733 18.1317 55.8734 18.1321L56.8971 21.95L53.1829 20.9565C53.1823 20.9563 53.1817 20.9562 53.1811 20.956C53.0662 20.9243 52.9546 20.9126 52.849 20.9126C52.6259 20.9126 52.4045 20.9739 52.211 21.0793C50.9476 21.7598 49.5119 22.1544 47.979 22.1544C47.265 22.1544 46.5288 22.0694 45.7787 21.8861L45.7782 21.886C44.417 21.5556 42.9875 20.6799 41.8035 19.5254C40.6193 18.3708 39.712 16.968 39.3612 15.6154ZM47.979 5.58673C45.5968 5.58673 43.3938 6.66701 41.932 8.55545C40.4728 10.4406 39.9843 12.8941 40.6031 15.293C40.8914 16.4092 41.6724 17.6077 42.6941 18.6053C43.7155 19.6025 44.9406 20.3629 46.0787 20.6398C46.7116 20.7927 47.3508 20.8728 47.979 20.8728C49.2543 20.8728 50.469 20.565 51.5974 19.9565C51.9831 19.7484 52.4165 19.6354 52.849 19.6354C53.0761 19.6354 53.2965 19.6664 53.5092 19.7222L53.5108 19.7226L55.086 20.1428L54.6355 18.4617C54.4706 17.8486 54.5438 17.1981 54.8288 16.6281C55.651 14.9793 55.8428 13.1264 55.3806 11.2606C54.7266 8.62741 52.706 6.56194 50.1061 5.87088L50.1049 5.87057C49.3969 5.6798 48.6812 5.58673 47.979 5.58673Z" fill="#333333"/>
<path fill-rule="evenodd" clip-rule="evenodd" d="M47.979 3.59363C41.8208 3.59363 37.0132 9.37213 38.6724 15.7935C39.0641 17.3046 40.0571 18.8164 41.3067 20.0349C42.5564 21.2534 44.0943 22.2094 45.6098 22.5773C46.4153 22.7741 47.2082 22.8659 47.979 22.8659C49.6365 22.8659 51.1879 22.4387 52.5493 21.7053L52.5509 21.7044C52.6489 21.651 52.7543 21.6241 52.849 21.6241C52.9019 21.6241 52.9488 21.63 52.9924 21.6421L56.9221 22.6933L56.9333 22.6955L56.9365 22.6961C56.9526 22.6995 57.0089 22.7112 57.0649 22.7112C57.4368 22.7112 57.7397 22.361 57.6393 21.9708L56.5601 17.9457L56.5595 17.9437C56.523 17.8108 56.5393 17.6574 56.6099 17.5161C57.5884 15.5546 57.9124 13.2141 57.3131 10.7801C56.4957 7.47368 53.9158 4.81926 50.6159 3.94144L50.6141 3.94095C49.7202 3.70837 48.8372 3.59363 47.979 3.59363ZM47.979 4.30516C42.276 4.30516 37.821 9.65421 39.3612 15.6154C39.712 16.968 40.6193 18.3708 41.8035 19.5254C42.9875 20.6799 44.417 21.5556 45.7782 21.886L45.7787 21.8861C46.5288 22.0694 47.265 22.1544 47.979 22.1544C49.5119 22.1544 50.9476 21.7598 52.211 21.0793C52.4045 20.9739 52.6259 20.9126 52.849 20.9126C52.9546 20.9126 53.0662 20.9243 53.1811 20.956L53.1829 20.9565L56.8971 21.95L55.8734 18.1321L55.8731 18.131C55.7862 17.8134 55.8321 17.4809 55.9734 17.1982C56.8773 15.3859 57.1807 13.2187 56.6224 10.9509C55.8666 7.89389 53.4796 5.43986 50.4339 4.6293C49.5958 4.4113 48.7733 4.30516 47.979 4.30516Z" fill="#333333"/>
<path fill-rule="evenodd" clip-rule="evenodd" d="M94.0769 4.8637C93.8655 4.49218 93.4677 4.27727 93.0498 4.27727L74.9578 4.29041C74.454 4.29046 74.0172 4.60163 73.8425 5.06529L73.8424 5.06573C73.7167 5.40096 73.7449 5.76668 73.9175 6.06874L73.9199 6.07296L73.9224 6.07711C73.9874 6.18341 74.0699 6.28353 74.1698 6.37169L81.0562 12.3102L82.7347 21.2261L82.7348 21.2267C82.8265 21.7207 83.2089 22.0886 83.7046 22.1672C84.1953 22.2457 84.6782 22.0146 84.9303 21.5884L84.9307 21.5877L94.0706 6.05084L93.8676 5.69817C93.8676 5.69802 93.8677 5.69788 93.8677 5.69774L94.0708 6.05044C94.2885 5.68123 94.2897 5.23009 94.0769 4.8637ZM93.2538 4.63152L93.0498 4.27727L93.2537 4.6315C93.2537 4.63151 93.2538 4.63152 93.2538 4.63152ZM82.091 10.5802L77.078 6.25281H89.6743L82.091 10.5802ZM84.2908 18.7762L83.0688 12.2839L90.6669 7.95073L84.2908 18.7762Z" fill="#333333"/>
</svg>
