<svg width="24" height="25" viewBox="0 0 24 25" fill="none" xmlns="http://www.w3.org/2000/svg">
<path fill-rule="evenodd" clip-rule="evenodd" d="M7.93016 5.08094C6.96468 5.08094 6.01268 5.35315 5.16934 5.86934C2.55924 7.4692 1.64069 11.041 3.15674 13.8285C3.44041 14.3505 3.94845 14.9774 4.60078 15.6566C5.24948 16.332 6.02596 17.044 6.83181 17.736C8.44336 19.1198 10.1582 20.4115 11.1714 21.1534L11.1717 21.1536C11.4145 21.3318 11.6997 21.425 11.9993 21.425C12.2984 21.425 12.5842 21.3321 12.8323 21.1528C13.8456 20.4109 15.56 19.1194 17.1711 17.736C17.977 17.044 18.7534 16.332 19.4021 15.6566C20.0545 14.9774 20.5624 14.3506 20.8461 13.8286C22.3581 11.041 21.4394 7.46901 18.8292 5.86924C17.9859 5.35311 17.034 5.08094 16.0685 5.08094C14.622 5.08094 13.2604 5.66466 12.2368 6.71009L11.9993 6.95261L11.7619 6.71009C10.7382 5.66466 9.3767 5.08094 7.93016 5.08094ZM4.82121 5.31573C5.76579 4.73757 6.83784 4.42944 7.93016 4.42944C9.45142 4.42944 10.8853 5.003 11.9993 6.02729C13.1134 5.003 14.5473 4.42944 16.0685 4.42944C17.1609 4.42944 18.2329 4.73757 19.1775 5.31573C22.0997 7.10674 23.0955 11.0625 21.4282 14.1362C21.1026 14.7355 20.5462 15.4126 19.8815 16.1047C19.2131 16.8006 18.4196 17.5276 17.6046 18.2274C15.9745 19.6271 14.2443 20.9303 13.225 21.6766L13.2235 21.6777C12.8645 21.9374 12.4422 22.0765 11.9993 22.0765C11.5569 22.0765 11.1336 21.9376 10.7776 21.6764C9.75833 20.9301 8.02823 19.627 6.39828 18.2274C5.58331 17.5276 4.78983 16.8006 4.12145 16.1047C3.45673 15.4127 2.90053 14.7358 2.57487 14.1366M4.82121 5.31573C1.89905 7.10672 0.903135 11.0627 2.57487 14.1366L4.82121 5.31573ZM5.49182 6.36854C6.23377 5.91491 7.07382 5.67302 7.93016 5.67302C9.43233 5.67302 10.8221 6.38998 11.7574 7.61879L11.7583 7.62004L11.9993 7.93993L12.2404 7.62005L12.2413 7.61879C13.1767 6.38984 14.5708 5.67302 16.0685 5.67302C16.9246 5.67302 17.7649 5.91478 18.5031 6.36883C20.8746 7.82111 21.6693 11.044 20.3063 13.548C20.001 14.1091 19.4441 14.7642 18.7801 15.4366C18.111 16.1141 17.3134 16.8287 16.5073 17.5099C14.895 18.8725 13.234 20.1139 12.4663 20.6773L12.4646 20.6786C12.1881 20.8789 11.8064 20.8789 11.5299 20.6786L11.5287 20.6777C10.7606 20.1161 9.09955 18.8756 7.48713 17.513C6.68107 16.8318 5.88345 16.1169 5.21431 15.4388C4.55033 14.766 3.99353 14.1102 3.68815 13.548M5.83998 6.92213C3.78363 8.18526 3.06089 11.0186 4.26992 13.2398C4.52962 13.718 5.03236 14.3205 5.68746 14.9844C6.33751 15.6431 7.11882 16.3439 7.91671 17.0182C9.51162 18.366 11.158 19.5958 11.921 20.1537C11.9647 20.1851 12.0292 20.1852 12.073 20.154C12.8364 19.5937 14.4828 18.363 16.0778 17.0151C16.8757 16.3408 17.657 15.6402 18.3071 14.982C18.9622 14.3186 19.4649 13.7171 19.7245 13.2398C20.9338 11.0183 20.2105 8.181 18.1546 6.92221L18.154 6.92185C17.5177 6.53038 16.7979 6.32452 16.0685 6.32452C14.7919 6.32452 13.5887 6.93395 12.7699 8.00936C12.7697 8.00957 12.7695 8.00978 12.7694 8.00999L11.9993 9.03192L11.2293 8.00999C11.2291 8.00976 11.229 8.00954 11.2288 8.00931C10.4099 6.93379 9.21078 6.32452 7.93016 6.32452C7.2011 6.32452 6.48106 6.53025 5.83998 6.92213ZM5.49182 6.36854L5.49126 6.36889L5.49182 6.36854ZM5.49126 6.36889C3.12023 7.82509 2.32509 11.0437 3.68815 13.548L5.49126 6.36889Z" fill="#333333"/>
<path d="M11.9993 21.7236C11.6291 21.7236 11.2757 21.6079 10.977 21.3889C8.94928 19.9055 4.10287 16.2156 2.88706 13.9802C1.29683 11.0589 2.25181 7.30703 5.01157 5.61704C5.90345 5.07162 6.91312 4.78238 7.93961 4.78238C9.47515 4.78238 10.9181 5.40218 11.9993 6.50542C13.0805 5.40218 14.5235 4.78238 16.059 4.78238C17.0855 4.78238 18.0952 5.07162 18.9871 5.61704C21.7469 7.30703 22.7018 11.0589 21.1158 13.9802C19.9 16.2156 15.0536 19.9055 13.0258 21.3889C12.7229 21.6079 12.3695 21.7236 11.9993 21.7236ZM7.93961 6.02198C7.14871 6.02198 6.37042 6.2451 5.68048 6.66657C3.47182 8.02186 2.71457 11.0382 3.99769 13.3935C5.12516 15.4677 10.1988 19.2774 11.7259 20.3931C11.8857 20.5087 12.1087 20.5087 12.2686 20.3931C13.7957 19.2733 18.8693 15.4636 19.9968 13.3935C21.2799 11.0382 20.5226 8.01773 18.314 6.66657C17.6282 6.2451 16.85 6.02198 16.059 6.02198C14.675 6.02198 13.3792 6.6831 12.5042 7.83179L11.9993 8.50117L11.4945 7.83179C10.6194 6.6831 9.32791 6.02198 7.93961 6.02198Z" fill="#333333"/>
</svg>
