<svg width="24" height="25" viewBox="0 0 24 25" fill="none" xmlns="http://www.w3.org/2000/svg">
<path fill-rule="evenodd" clip-rule="evenodd" d="M22.0769 4.8637C21.8655 4.49218 21.4677 4.27727 21.0498 4.27727L2.95784 4.29041C2.45399 4.29046 2.01717 4.60163 1.84255 5.06529L1.84238 5.06573C1.71667 5.40096 1.74486 5.76668 1.91747 6.06874L1.91988 6.07296L1.92241 6.07711C1.98737 6.18341 2.06986 6.28353 2.16977 6.37169L9.05621 12.3102L10.7347 21.2261L10.7348 21.2267C10.8265 21.7207 11.2089 22.0886 11.7046 22.1672C12.1953 22.2457 12.6782 22.0146 12.9303 21.5884L12.9307 21.5877L22.0706 6.05084L21.8676 5.69817C21.8676 5.69802 21.8677 5.69788 21.8677 5.69774L22.0708 6.05044C22.2885 5.68123 22.2897 5.23009 22.0769 4.8637ZM21.2538 4.63152L21.0498 4.27727L21.2537 4.6315C21.2537 4.63151 21.2538 4.63152 21.2538 4.63152ZM10.091 10.5802L5.07803 6.25281H17.6743L10.091 10.5802ZM12.2908 18.7762L11.0688 12.2839L18.6669 7.95073L12.2908 18.7762Z" fill="#333333"/>
</svg>
